<svg width="16" height="16" viewBox="0 0 16 16" fill="none" xmlns="http://www.w3.org/2000/svg">
<g clip-path="url(#clip0_121_47803)">
<path d="M10.0336 3.33341C10.6848 3.46046 11.2832 3.77892 11.7523 4.24804C12.2214 4.71716 12.5399 5.31559 12.6669 5.96675M10.0336 0.666748C11.3865 0.817039 12.648 1.42286 13.6111 2.38475C14.5742 3.34664 15.1816 4.60742 15.3336 5.96008M14.6669 11.2801V13.2801C14.6677 13.4657 14.6297 13.6495 14.5553 13.8196C14.4809 13.9898 14.3718 14.1425 14.235 14.268C14.0982 14.3935 13.9367 14.4891 13.7608 14.5486C13.5849 14.608 13.3985 14.6301 13.2136 14.6134C11.1622 14.3905 9.19161 13.6895 7.46028 12.5667C5.8495 11.5432 4.48384 10.1775 3.46028 8.56675C2.3336 6.82755 1.63244 4.84741 1.41361 2.78675C1.39695 2.60239 1.41886 2.41659 1.47795 2.24116C1.53703 2.06574 1.63199 1.90454 1.75679 1.76783C1.88159 1.63112 2.03348 1.52189 2.20281 1.4471C2.37213 1.3723 2.55517 1.33359 2.74028 1.33341H4.74028C5.06382 1.33023 5.37747 1.4448 5.62279 1.65577C5.8681 1.86674 6.02833 2.15971 6.07361 2.48008C6.15803 3.12013 6.31458 3.74857 6.54028 4.35341C6.62998 4.59203 6.64939 4.85136 6.59622 5.10067C6.54305 5.34998 6.41952 5.57882 6.24028 5.76008L5.39361 6.60675C6.34265 8.27578 7.72458 9.65771 9.39361 10.6067L10.2403 9.76008C10.4215 9.58084 10.6504 9.45731 10.8997 9.40414C11.149 9.35097 11.4083 9.37038 11.6469 9.46008C12.2518 9.68578 12.8802 9.84233 13.5203 9.92675C13.8441 9.97243 14.1399 10.1356 14.3513 10.3851C14.5627 10.6346 14.6751 10.9531 14.6669 11.2801Z" stroke="#3056D3" stroke-width="1.4" stroke-linecap="round" stroke-linejoin="round"/>
</g>
<defs>
<clipPath id="clip0_121_47803">
<rect width="16" height="16" fill="white"/>
</clipPath>
</defs>
</svg>
